<?xml version="1.0" standalone="no"?>
<svg   viewBox="0 0 200 200" xmlns="http://www.w3.org/2000/svg">
  <path fill="#adc2ca" d="M39.6,-64.4C50.4,-62.3,57.7,-49.9,61.8,-37.5C65.9,-25,66.7,-12.5,69.8,1.8C72.9,16.1,78.2,32.1,75.2,46.5C72.2,60.8,61,73.4,47,77.8C33.1,82.3,16.6,78.5,4.9,69.9C-6.7,61.4,-13.3,48,-26,42.9C-38.7,37.7,-57.4,40.8,-69.6,35C-81.9,29.3,-87.7,14.6,-85.8,1.1C-83.9,-12.4,-74.1,-24.8,-65.8,-37.3C-57.4,-49.8,-50.4,-62.5,-39.7,-64.7C-28.9,-66.9,-14.5,-58.5,-0.1,-58.4C14.4,-58.3,28.7,-66.5,39.6,-64.4Z" transform="translate(100 100)" />
</svg>

